<svg id="icon" xmlns="http://www.w3.org/2000/svg" viewBox="0 0 28.35 27.83"><rect x="4.27" y="11.18" width="16.64" height="1.8"/><rect x="4.27" y="15.13" width="11.42" height="1.8"/><path d="M29.34,10.36a1.41,1.41,0,0,0-1.86.71L27,12.17V3a.9.9,0,0,0-.9-.9H9.52l-.22.08-.05,0a.67.67,0,0,0-.19.14l-7,7A.67.67,0,0,0,2,9.51l0,.05a1.43,1.43,0,0,0-.08.22h0a1,1,0,0,0,0,.17V29a.9.9,0,0,0,.9.9H26.09A.9.9,0,0,0,27,29v-10l3.06-6.83A1.42,1.42,0,0,0,29.34,10.36ZM6.85,7.11,8.79,5.16V9.05H4.9Zm18.33,21H3.63V10.85H9.69a.9.9,0,0,0,.9-.9V3.89H25.18v12.3L23,21.06l-2.38-3.44a1.41,1.41,0,1,0-2.32,1.6l3.81,5.5a1.41,1.41,0,0,0,1.16.61h.13a1.41,1.41,0,0,0,1.15-.83l.63-1.41Z" transform="translate(-1.83 -2.09)"/></svg>