<svg id="icon" xmlns="http://www.w3.org/2000/svg" viewBox="0 0 28.61 25.04"><path d="M16,12.23A5.8,5.8,0,1,0,21.8,18,5.79,5.79,0,0,0,16,12.23Zm0,10.88A5.08,5.08,0,1,1,21.08,18,5.09,5.09,0,0,1,16,23.11Z" transform="translate(-1.7 -3.48)"/><path d="M16.22,14a.36.36,0,0,0-.36.36v3.47H13a.36.36,0,1,0,0,.72h3a.35.35,0,0,0,.18-.05h0a.37.37,0,0,0,.36-.37V14.38A.36.36,0,0,0,16.22,14Z" transform="translate(-1.7 -3.48)"/><path d="M30.3,18.23c0-3.28-1.62-5-3.72-5.23l.56-.09a11.29,11.29,0,0,0-22.3.16l.1,0c-1.87.45-3.24,2.12-3.24,5.14,0,3.59,1.93,5.28,4.32,5.28H7a.58.58,0,0,0,.57-.57V13.52A.57.57,0,0,0,7,13H6.55A9.69,9.69,0,0,1,16,5.14,9.58,9.58,0,0,1,25.45,13H25a.57.57,0,0,0-.57.56v9.42a.58.58,0,0,0,.57.57h.2a4.63,4.63,0,0,1-1,2.29,2.71,2.71,0,0,1-1.44.82A.72.72,0,0,0,22,26H19.21a.73.73,0,0,0-.73.73v1.07a.73.73,0,0,0,.73.73H22a.73.73,0,0,0,.73-.71,3.92,3.92,0,0,0,2.29-1.23,5.84,5.84,0,0,0,1.32-3.09l-.39,0C28.37,23.51,30.3,21.82,30.3,18.23Z" transform="translate(-1.7 -3.48)"/></svg>