<svg id="Layer_1" data-name="Layer 1" xmlns="http://www.w3.org/2000/svg" viewBox="0 0 1187.23 1744.85"><defs><style>.cls-1{fill:#020101;}</style></defs><path class="cls-1" d="M1566.58,671.57A49.6,49.6,0,0,0,1517,721.16V932.67c0,272.63-221.78,494.45-494.41,494.45S528.1,1205.3,528.1,932.67V721.16a49.59,49.59,0,1,0-99.17,0V932.67c0,310.62,239.83,566.25,544.06,591.53v249H774.16a49.59,49.59,0,0,0,0,99.17H1271a49.59,49.59,0,1,0,0-99.17H1072.17v-249c304.19-25.28,544-280.91,544-591.53V721.16A49.6,49.6,0,0,0,1566.58,671.57Z" transform="translate(-428.93 -127.58)"/><path class="cls-1" d="M1022.58,1226.35c161.93,0,293.64-131.75,293.64-293.68V421.22c0-161.93-131.71-293.64-293.64-293.64S728.84,259.29,728.84,421.22V932.67C728.84,1094.6,860.62,1226.35,1022.58,1226.35ZM828,421.22C828,314,915.3,226.75,1022.58,226.75S1217.05,314,1217.05,421.22V932.67c0,107.25-87.23,194.51-194.47,194.51S828,1039.92,828,932.67Z" transform="translate(-428.93 -127.58)"/><path class="cls-1" d="M945.39,726.55h154.28a49.59,49.59,0,1,0,0-99.17H945.39a49.59,49.59,0,0,0,0,99.17Z" transform="translate(-428.93 -127.58)"/></svg>