<svg id="icon" xmlns="http://www.w3.org/2000/svg" viewBox="0 0 30.76 29.24"><path d="M31,15l-6.42-2.25a.65.65,0,0,0-.34,0L17.78,15a.53.53,0,0,0-.35.49v7.33a4.38,4.38,0,0,0,.21,1.32,9.64,9.64,0,0,0,3.69,4.59,19.08,19.08,0,0,0,2.81,1.79.47.47,0,0,0,.46,0,19.69,19.69,0,0,0,2.81-1.79,9.7,9.7,0,0,0,3.69-4.59,4.7,4.7,0,0,0,.2-1.32V15.53A.53.53,0,0,0,31,15Zm-.69,7.82a3.77,3.77,0,0,1-.15,1c-.84,2.79-4.76,5.09-5.75,5.63-1-.54-4.91-2.84-5.75-5.63a3.45,3.45,0,0,1-.16-1v-7l5.91-2.07,5.9,2.07Z" transform="translate(-0.54 -1.38)"/><polygon points="22.59 16.64 22.59 19.07 20.16 19.07 20.16 21.55 22.59 21.55 22.59 23.98 25.06 23.98 25.06 21.55 27.5 21.55 27.5 19.07 25.06 19.07 25.06 16.64 22.59 16.64"/><path d="M5.84,8.21h8.33a.52.52,0,0,0,0-1H5.84a.52.52,0,0,0,0,1Z" transform="translate(-0.54 -1.38)"/><path d="M20.09,12.11a.51.51,0,0,0-.51-.51H5.84a.52.52,0,0,0,0,1H19.58A.51.51,0,0,0,20.09,12.11Z" transform="translate(-0.54 -1.38)"/><path d="M19.89,29.59H1.57V2.41H18.1V7.65a.51.51,0,0,0,.51.51h5.24v3.13a2.24,2.24,0,0,1,1,0V7.66h0a.51.51,0,0,0-.16-.38L19,1.53h0l0,0h0l0,0h0l0,0h0a.05.05,0,0,1,0,0H1.05a.51.51,0,0,0-.51.51V30.11a.51.51,0,0,0,.51.51H21.26q-.42-.29-.87-.63C20.22,29.86,20.05,29.73,19.89,29.59ZM19.13,7.13v-4l4,4Z" transform="translate(-0.54 -1.38)"/><path d="M5.84,17H15.9V16H5.84a.51.51,0,0,0,0,1Z" transform="translate(-0.54 -1.38)"/><path d="M5.84,25.88H16.68a6.51,6.51,0,0,1-.44-1H5.84a.52.52,0,0,0,0,1Z" transform="translate(-0.54 -1.38)"/><path d="M5.84,21.46H15.9v-1H5.84a.52.52,0,0,0,0,1Z" transform="translate(-0.54 -1.38)"/></svg>