<svg id="레이어_1" data-name="레이어 1" xmlns="http://www.w3.org/2000/svg" viewBox="0 0 26.32 32"><defs><style>.cls-1{fill:#040000;}</style></defs><path class="cls-1" d="M3.81,32h25a.52.52,0,0,0,.39-.07.61.61,0,0,0,.3-.58.46.46,0,0,0-.06-.22.53.53,0,0,0-.23-.26l-8-5.24-.33-.22h0c.09-.27-.26-1.06-.33-1.34l-.39-1.62c-.26-1.05-.23-2.14-1.29-2.6-1.41-.62-2.86-1.2-4.31-1.72L14.26,18l-.09-.1a4,4,0,0,1-.35-.46L12.1,15.15c-.48-.64-1-1.27-1.46-1.94l0,0c0-.36,0-.74,0-1.11V9.26a4.85,4.85,0,0,0-.09-1.86,4.92,4.92,0,0,0-.92-1.07L7.53,4,4.23.18a.6.6,0,0,0-1,.42V31.39A.61.61,0,0,0,3.81,32ZM18.62,21c-.23-.16,0-.26,0,0ZM4.4,4.39V2.18L6.11,4.13,8.16,6.47A8,8,0,0,0,9.41,7.94a4.45,4.45,0,0,0,0,.82v3.07c0,.35-.06.8,0,1.21L6.9,14.23c-.7.34-.09,1.37.6,1l2.3-1.11c.2.25.44.49.6.71.89,1.19,1.72,2.53,2.72,3.63l-2.21,3.64-2.6,1.5a.6.6,0,0,0,.61,1l2.24-1.29,1.05,1.52c.43.63,1.46,0,1-.6s-.79-1.16-1.19-1.73c.67-1.11,1.34-2.22,2-3.33a24.77,24.77,0,0,0,2.8,1.07c.58.23,1.16.5,1.75.71v.07a2.75,2.75,0,0,0,.15.63l.15.63a19.12,19.12,0,0,0,.77,3.35l-1.56,2h-2a.6.6,0,0,0,0,1.19h1.57c.42,0,.87.09,1.21-.21a11.78,11.78,0,0,0,1.61-2,42.81,42.81,0,0,0,4.13,2.62L27,30.79H4.4Z" transform="translate(-3.21 0)"/></svg>