<svg id="icon" xmlns="http://www.w3.org/2000/svg" viewBox="0 0 32 29.9"><rect x="6.23" y="25.92" width="19.61" height="3.98" rx="1.27"/><path d="M7.54,25.64h17V15.91C24.53,11.55,20.7,8,16,8s-8.49,3.57-8.49,7.93ZM15,10.2a.81.81,0,0,1,.87.71.79.79,0,0,1-.7.87c-.18,0-3.9.52-3.9,5.4a.8.8,0,1,1-1.59,0C9.72,10.83,15,10.21,15,10.2Z" transform="translate(0 -1.05)"/><path d="M4.06,17.76.59,18a.65.65,0,0,0-.59.69.64.64,0,0,0,.69.58L4.16,19a.64.64,0,0,0,.58-.69A.62.62,0,0,0,4.06,17.76Z" transform="translate(0 -1.05)"/><path d="M5,12,1.8,10.66A.63.63,0,0,0,1,11a.64.64,0,0,0,.33.84L4.5,13.2a.64.64,0,0,0,.84-.33A.64.64,0,0,0,5,12Z" transform="translate(0 -1.05)"/><path d="M7.53,8.21a.64.64,0,1,0,1-.8L6.34,4.7a.64.64,0,1,0-1,.8Z" transform="translate(0 -1.05)"/><path d="M13.29,5.74A.65.65,0,0,0,13.8,5l-.66-3.42a.64.64,0,0,0-.74-.51.64.64,0,0,0-.51.75l.65,3.42A.66.66,0,0,0,13.29,5.74Z" transform="translate(0 -1.05)"/><path d="M18.8,5.74a.62.62,0,0,0,.79-.42l1-3.33a.65.65,0,0,0-.42-.8.64.64,0,0,0-.8.43l-1,3.32A.64.64,0,0,0,18.8,5.74Z" transform="translate(0 -1.05)"/><path d="M24.56,8.33,27,5.87a.64.64,0,0,0-.9-.9L23.66,7.43a.64.64,0,0,0,.9.9Z" transform="translate(0 -1.05)"/><path d="M30.86,12.3a.65.65,0,0,0,.43-.8.63.63,0,0,0-.8-.42l-3.33,1a.65.65,0,0,0-.43.8.64.64,0,0,0,.8.42Z" transform="translate(0 -1.05)"/><path d="M31.48,18.52l-3.42-.66a.63.63,0,0,0-.74.5.64.64,0,0,0,.5.75l3.42.66a.64.64,0,1,0,.24-1.25Z" transform="translate(0 -1.05)"/></svg>