<svg id="icon" xmlns="http://www.w3.org/2000/svg" viewBox="0 0 32 32"><defs><style>.cls-1{fill:#040000;}</style></defs><path class="cls-1" d="M17.5,0a.94.94,0,0,0-.94.94V14.5a.94.94,0,0,0,.94.94H31.06A.94.94,0,0,0,32,14.5,14.51,14.51,0,0,0,17.5,0Zm.95,13.55V1.92A12.63,12.63,0,0,1,30.08,13.55Z"/><path class="cls-1" d="M28.05,16.56H15.44V4A.94.94,0,0,0,14.5,3,14.5,14.5,0,1,0,29,17.5.94.94,0,0,0,28.05,16.56ZM14.5,30.11a12.61,12.61,0,0,1-.95-25.18V17.5a1,1,0,0,0,.95.95H27.07A12.62,12.62,0,0,1,14.5,30.11Z"/></svg>