<svg id="icon" xmlns="http://www.w3.org/2000/svg" viewBox="0 0 26.69 26.69"><path d="M26.49,7.76A13.3,13.3,0,1,0,29.35,16,13.3,13.3,0,0,0,26.49,7.76ZM19.78,23l-.3.78-.1.24c-.14.31-.28.6-.43.87l-.09.15a7.36,7.36,0,0,1-.4.62l-.13.18a5.13,5.13,0,0,1-.5.6l0,0a4.64,4.64,0,0,1-.5.42l-.15.1-.15.08V22.21h.11c.42,0,.84.05,1.25.1h.13c.46.05.91.13,1.35.21l.08,0,0,.13C19.85,22.79,19.81,22.88,19.78,23ZM14.7,26.87a4.64,4.64,0,0,1-.5-.42l0,0a5.13,5.13,0,0,1-.5-.6l-.13-.18a7.36,7.36,0,0,1-.4-.62l-.09-.15c-.15-.27-.29-.56-.43-.87a2.44,2.44,0,0,0-.1-.24q-.15-.37-.3-.78c0-.1-.07-.19-.1-.29l0-.13.08,0c.44-.08.89-.16,1.35-.21h.13c.41-.05.83-.08,1.25-.1H15v4.84L14.85,27ZM12.21,9c.1-.28.21-.55.32-.81L12.62,8c.14-.31.28-.61.43-.88L13.14,7a6.21,6.21,0,0,1,.4-.63l.13-.18a5.13,5.13,0,0,1,.5-.6l0,0a3.35,3.35,0,0,1,.51-.42.71.71,0,0,1,.14-.1L15,5V9.79h-.12c-.41,0-.81,0-1.21-.1H13.5c-.45-.06-.9-.13-1.34-.21l-.08,0s0-.1.05-.15S12.18,9.13,12.21,9ZM17.3,5.13a3.84,3.84,0,0,1,.5.42l0,0a6.38,6.38,0,0,1,.51.6l.12.18a6.21,6.21,0,0,1,.4.63l.09.14c.15.27.29.57.43.88l.09.22c.11.26.22.53.32.81,0,.09.06.17.08.25s0,.11.05.15l-.08,0c-.44.08-.89.15-1.34.21h-.17c-.4.05-.8.08-1.21.1H17V5l.15.07Zm1.44,15.22h-.09c-.5-.06-1-.1-1.49-.12H17V17h3.84v.18c0,.53-.07,1.06-.12,1.58a.31.31,0,0,0,0,.1c-.07.54-.16,1.07-.26,1.59l0,.16-.13,0C19.78,20.49,19.26,20.41,18.74,20.35Zm-5.39,0h-.09c-.52.06-1,.14-1.55.24l-.13,0,0-.16c-.1-.52-.19-1.05-.26-1.59v-.11c-.06-.51-.1-1-.13-1.57V17H15v3.21h-.16C14.34,20.24,13.85,20.28,13.35,20.34Zm-.09-8.69h.1q.73.09,1.47.12H15V15H11.16v-.18c0-.53.07-1.06.13-1.58v-.09c.07-.55.16-1.08.26-1.6l0-.16.13,0C12.22,11.51,12.73,11.59,13.26,11.65Zm5.38,0h.1c.53-.06,1-.14,1.55-.24l.13,0,0,.16c.1.52.19,1,.26,1.6v.09c.06.52.1,1,.13,1.58V15H17V11.79h.17Q17.91,11.75,18.64,11.66ZM22.86,15a1.79,1.79,0,0,1,0-.23c0-.61-.07-1.2-.14-1.78a.28.28,0,0,0,0-.09c-.07-.61-.17-1.21-.29-1.8a1.25,1.25,0,0,0,0-.19l.15-.05c.48-.15.94-.31,1.39-.49l.05,0a13.65,13.65,0,0,0,1.34-.61l.12-.05A11,11,0,0,1,27.3,15Zm1.27-6.91-.38.17c-.21.1-.41.19-.62.27l-.5.18L22,8.93l-.11,0-.06-.16c-.08-.24-.15-.46-.23-.68s-.07-.18-.1-.27-.17-.41-.25-.61a2.29,2.29,0,0,1-.1-.23c-.12-.25-.24-.5-.37-.74v0c-.13-.24-.27-.47-.41-.7a.08.08,0,0,1,0,0A11.34,11.34,0,0,1,24.13,8.09ZM11.65,5.56a7.84,7.84,0,0,0-.41.69l0,0q-.18.34-.36.72a2.29,2.29,0,0,1-.1.23c-.08.2-.17.4-.25.61s-.06.18-.1.27-.15.44-.23.68a.75.75,0,0,0,0,.16l-.12,0-.65-.22C9.2,8.65,9,8.6,8.88,8.53s-.42-.18-.63-.27l-.38-.17a11.28,11.28,0,0,1,3.81-2.58S11.66,5.54,11.65,5.56ZM6.58,9.69a.75.75,0,0,1,.13.06c.42.21.86.42,1.32.6l.09,0c.44.18.89.33,1.36.48l.15.05a1.2,1.2,0,0,0,0,.2c-.12.58-.22,1.18-.29,1.79a.22.22,0,0,0,0,.08c-.07.59-.11,1.19-.14,1.8,0,.07,0,.14,0,.22H4.7A11,11,0,0,1,6.58,9.69ZM9.15,17c0,.08,0,.15,0,.22,0,.62.07,1.22.14,1.81a.2.2,0,0,0,0,.07c.07.61.17,1.21.29,1.8l0,.19-.16.06c-.47.14-.94.3-1.38.48l-.05,0a13.65,13.65,0,0,0-1.34.61l-.12,0A11,11,0,0,1,4.7,17ZM7.87,23.91l.37-.17c.21-.09.42-.19.64-.27s.33-.12.5-.18.41-.15.63-.22l.12,0a1.59,1.59,0,0,0,.07.2c.06.22.13.42.21.63l.11.3.23.57.12.26c.11.23.22.46.33.67l0,.08c.13.24.26.47.4.69a.1.1,0,0,0,0,0A11.28,11.28,0,0,1,7.87,23.91Zm12.49,2.53c.14-.22.27-.45.4-.69l0-.09c.11-.21.22-.43.32-.66l.12-.28c.08-.17.15-.35.22-.53s.09-.22.13-.34.13-.38.2-.58a2.09,2.09,0,0,1,.08-.23l.1,0,.68.23.46.17c.22.08.43.18.65.28l.36.16a11.34,11.34,0,0,1-3.8,2.58Zm5.06-4.13-.12,0A13.65,13.65,0,0,0,24,21.65l0,0c-.45-.18-.92-.34-1.4-.49l-.15-.05,0-.19c.12-.59.22-1.19.29-1.8a.17.17,0,0,0,0-.07c.07-.59.11-1.2.14-1.82,0-.07,0-.14,0-.21H27.3A11,11,0,0,1,25.42,22.31Z" transform="translate(-2.65 -2.65)"/></svg>