<svg id="icon" xmlns="http://www.w3.org/2000/svg" viewBox="0 0 30.83 29.73"><path d="M30.81,27l-4.64-4.63a7.47,7.47,0,0,0-.1-7,14.3,14.3,0,0,0,.09-1.46A12.59,12.59,0,0,0,23.43,6a12.72,12.72,0,0,0-20,0,12.71,12.71,0,0,0,0,15.74A12.74,12.74,0,0,0,16.77,26.2h0L17.3,26a7.39,7.39,0,0,0,5.63-.47l4.63,4.64A2.3,2.3,0,0,0,30.81,27ZM24,12.93a7.38,7.38,0,0,0-4.11-1.44c0-.38-.08-.76-.13-1.13,0-.18-.06-.34-.09-.51s-.08-.56-.13-.83l.14,0c.46-.15.9-.3,1.33-.47l.05,0a13.31,13.31,0,0,0,1.27-.58l.12,0a10.66,10.66,0,0,1,1.8,5.07ZM9.66,20.17a20.67,20.67,0,0,1,2.49-.32,8,8,0,0,0,.3,1.35v3.25C11.37,23.85,10.35,22.31,9.66,20.17ZM9.79,7.23c.09-.26.19-.52.29-.76a2.14,2.14,0,0,1,.1-.22,7.13,7.13,0,0,1,.41-.83,1.09,1.09,0,0,1,.08-.15,6.66,6.66,0,0,1,.38-.59l.12-.17a4.82,4.82,0,0,1,.49-.58l0,0a3.67,3.67,0,0,1,.49-.41l.13-.09.15-.08V8h-.12c-.38,0-.77,0-1.15-.1H11c-.43,0-.86-.12-1.29-.2H9.66s0-.1,0-.14ZM14.64,3.5a3.67,3.67,0,0,1,.49.41l0,0a4.82,4.82,0,0,1,.49.58l.12.17a5.63,5.63,0,0,1,.38.6l.08.13c.15.26.28.55.42.84l.08.21q.16.38.3.78l.09.24s0,.1,0,.15h-.07c-.43.08-.86.15-1.29.2h-.16c-.38.05-.77.08-1.15.1h-.12V3.33l.15.08ZM12.16,18v0a20.92,20.92,0,0,0-3,.37l0-.15Q9,17.4,8.91,16.62a.28.28,0,0,1,0-.09c-.06-.5-.09-1-.12-1.5v-.18h3.67v1.8A7.81,7.81,0,0,0,12.16,18ZM10.78,9.74h.1c.47.06.94.09,1.41.12h.16v3.06H8.78v-.17c0-.51.06-1,.12-1.51a.28.28,0,0,1,0-.09q.09-.78.24-1.53l0-.15.12,0C9.79,9.6,10.28,9.68,10.78,9.74Zm3.58,14.54.4.37-.4,0Zm.76-11.35h-.76V9.87h.16c.47,0,.94-.06,1.41-.12H16c.5-.06,1-.14,1.48-.24h.11l.12.62.09.53c.05.33.07.67.11,1A7.52,7.52,0,0,0,15.12,12.93Zm6.05-6.6-.36.17-.59.25-.48.17c-.2.07-.4.15-.61.21l-.11,0A.75.75,0,0,1,19,7c-.07-.22-.15-.43-.22-.64s-.07-.18-.1-.26l-.24-.58-.09-.22c-.12-.24-.23-.48-.35-.71h0c-.13-.24-.26-.46-.39-.67l0-.05A10.89,10.89,0,0,1,21.17,6.33ZM9.24,3.91c-.13.21-.26.43-.38.66a.25.25,0,0,0,0,.07c-.11.21-.22.43-.32.65s-.07.17-.11.25-.15.36-.22.55-.07.18-.11.28L7.85,7l-.06.16a.38.38,0,0,1-.1,0c-.22-.06-.43-.14-.64-.21L6.6,6.75,6,6.49l-.35-.16A10.89,10.89,0,0,1,9.27,3.86Zm-4.84,4,.12,0a13.31,13.31,0,0,0,1.27.58l.09,0A13.07,13.07,0,0,0,7.17,9l.14,0a1.25,1.25,0,0,1,0,.19c-.11.56-.2,1.13-.27,1.72A.28.28,0,0,0,7,11c-.06.56-.1,1.13-.13,1.7a1.49,1.49,0,0,1,0,.21H2.6A10.66,10.66,0,0,1,4.4,7.86Zm2.45,7a1.49,1.49,0,0,1,0,.21c0,.58.07,1.15.13,1.71a.25.25,0,0,1,0,.08c.07.59.17,1.16.28,1.72a1.25,1.25,0,0,0,0,.19l-.15,0c-.43.13-.86.28-1.27.44l-.11,0c-.44.18-.86.37-1.27.58l-.12.05a10.66,10.66,0,0,1-1.8-5.07Zm-1.21,6.6A3.92,3.92,0,0,1,6,21.29c.2-.09.39-.18.6-.26L7,20.87c.21-.08.43-.16.65-.22l.1,0,.06.16q.11.33.21.63l.11.29c.07.18.14.36.22.54s.07.17.11.25.21.44.32.64a.2.2,0,0,0,0,.08c.12.23.25.45.38.66l0,.05A10.89,10.89,0,0,1,5.64,21.45Zm10,1.4a5.54,5.54,0,1,1,9.09-2,.91.91,0,0,0-1.25.06l-1.9,1.9a.91.91,0,0,0-.06,1.25A5.56,5.56,0,0,1,15.62,22.85Zm13.83,6a.38.38,0,0,1-.54,0l-4.39-4.38.29-.26c.09-.09.17-.19.26-.29l4.38,4.39A.38.38,0,0,1,29.45,28.84Z" transform="translate(-0.65 -1.13)"/></svg>