<svg id="icon" xmlns="http://www.w3.org/2000/svg" viewBox="0 0 24.57 24.48"><defs><style>.cls-1{fill:#040000;}</style></defs><path class="cls-1" d="M28.28,14.4a3.24,3.24,0,0,0-1.94-3V5.86A2,2,0,0,0,25.4,4a2,2,0,0,0-2.08.12l-.8.46-.05,0L16.7,7.94H10.19a6.46,6.46,0,0,0-1,12.85v6.6a.85.85,0,0,0,.85.85H13.2a.85.85,0,0,0,.85-.85V20.87H16.7l5.77,3.34.05,0,.8.46a2.46,2.46,0,0,0,1.21.35,1.81,1.81,0,0,0,.88-.23A2.08,2.08,0,0,0,26.34,23V17.38A3.25,3.25,0,0,0,28.28,14.4ZM12.34,26.53H10.89V20.87h1.45ZM22,22l-4.68-2.71a.82.82,0,0,0-.43-.12H10.19a4.76,4.76,0,1,1,0-9.51h6.74a.82.82,0,0,0,.43-.12L22,6.82Zm2.6,1a.61.61,0,0,1-.09.39.58.58,0,0,1-.37-.12L23.75,23V5.84l.43-.25a.58.58,0,0,1,.37-.12s.09.12.09.39Z" transform="translate(-3.72 -3.76)"/></svg>