<svg id="icon" xmlns="http://www.w3.org/2000/svg" viewBox="0 0 31.89 31.89"><path d="M15.4,32A15.94,15.94,0,0,1,15.88.14a15.47,15.47,0,0,1,7.79,1.93,1,1,0,0,1-1,1.75,13.14,13.14,0,0,0-6.77-1.68A14,14,0,0,0,2,15.8,14.06,14.06,0,0,0,15.49,30,13.87,13.87,0,0,0,29.81,17a1,1,0,0,1,1-1h1A15.88,15.88,0,0,1,15.4,32Zm0-4.43a11.51,11.51,0,0,1,.46-23,11.57,11.57,0,0,1,4.72,1l.73-.92a1,1,0,0,1,1.72,1c-.49,1.17-.95,2.43-1.45,3.76a53.24,53.24,0,0,1-3.44,8h0a2.63,2.63,0,1,1-4.56-2.64A33.86,33.86,0,0,1,16.19,11H15.9A5.07,5.07,0,1,0,21,16.08a1,1,0,0,1,2,0h0a7,7,0,0,1-4.3,6.54A7.09,7.09,0,1,1,15.58,9a7,7,0,0,1,2,.21L18.8,7.8l.5-.6a9.62,9.62,0,0,0-3.4-.63,9.51,9.51,0,0,0-9.5,9.79,9.51,9.51,0,0,0,19-.28,1,1,0,0,1,2,0h0A11.52,11.52,0,0,1,15.44,27.58ZM18.75,11a38,38,0,0,0-3.4,4.75.64.64,0,1,0,1.1.64h0A40.36,40.36,0,0,0,19,10.68c-.09.1-.17.21-.25.31Z" transform="translate(0.04 -0.13)"/></svg>