<svg id="icon" xmlns="http://www.w3.org/2000/svg" viewBox="0 0 24.88 31.22"><path d="M16.22,14l2.57-2.56A1,1,0,0,0,17.37,10l-2.56,2.57L8.27,6.07a1,1,0,0,0-1.42,0A11.23,11.23,0,0,0,9.6,24L6.27,30.14a1,1,0,0,0,0,1,1,1,0,0,0,.85.48h7.66a1,1,0,0,0,.85-.48,1,1,0,0,0,0-1L13,25.1a10.33,10.33,0,0,0,1.84.17,11.21,11.21,0,0,0,8-3.29,1,1,0,0,0,0-1.42ZM8.83,29.61l2.15-4,2.15,4Zm-.56-9A9.24,9.24,0,0,1,7.6,8.23l6.5,6.5h0l6.5,6.5A9.25,9.25,0,0,1,8.27,20.56Z" transform="translate(-3.56 -0.39)"/><path d="M25.86,3A8.82,8.82,0,0,0,13.41,3a1,1,0,0,0,0,1.42,1,1,0,0,0,1.41,0A6.81,6.81,0,0,1,24.45,14a1,1,0,0,0,0,1.42,1,1,0,0,0,.71.29,1,1,0,0,0,.7-.29A8.81,8.81,0,0,0,25.86,3Z" transform="translate(-3.56 -0.39)"/><path d="M16.86,6.42a1,1,0,0,0,0,1.41,1,1,0,0,0,1.42,0A1.92,1.92,0,0,1,21,10.55,1,1,0,0,0,21,12a1,1,0,0,0,1.41,0,3.92,3.92,0,0,0-5.55-5.54Z" transform="translate(-3.56 -0.39)"/></svg>