<svg id="icon" xmlns="http://www.w3.org/2000/svg" viewBox="0 0 29.13 23.49"><path d="M25.25,21.28a4.36,4.36,0,0,1-2.67-.85,3.37,3.37,0,0,0-3.95,0,4.33,4.33,0,0,1-2.66.85,4.36,4.36,0,0,1-2.67-.85,3.11,3.11,0,0,0-2-.64,3.14,3.14,0,0,0-2,.64,4.3,4.3,0,0,1-2.66.85A4.36,4.36,0,0,1,4,20.43a3.11,3.11,0,0,0-2-.64.65.65,0,1,1,0-1.29,4.36,4.36,0,0,1,2.67.85,3.09,3.09,0,0,0,2,.64,3.11,3.11,0,0,0,2-.64,4.36,4.36,0,0,1,2.67-.85,4.33,4.33,0,0,1,2.66.85A3.12,3.12,0,0,0,16,20a3.11,3.11,0,0,0,2-.64,4.6,4.6,0,0,1,5.33,0,3.37,3.37,0,0,0,3.95,0,4.36,4.36,0,0,1,2.67-.85.65.65,0,0,1,0,1.29,3.12,3.12,0,0,0-2,.64A4.33,4.33,0,0,1,25.25,21.28Z" transform="translate(-1.4 -4.26)"/><path d="M25.25,24.51a4.36,4.36,0,0,1-2.67-.85,3.37,3.37,0,0,0-3.95,0,4.33,4.33,0,0,1-2.66.85,4.36,4.36,0,0,1-2.67-.85,3.11,3.11,0,0,0-2-.64,3.14,3.14,0,0,0-2,.64,4.3,4.3,0,0,1-2.66.85A4.36,4.36,0,0,1,4,23.66a3.11,3.11,0,0,0-2-.64.65.65,0,1,1,0-1.29,4.36,4.36,0,0,1,2.67.85,3.09,3.09,0,0,0,2,.64,3.11,3.11,0,0,0,2-.64,4.36,4.36,0,0,1,2.67-.85,4.33,4.33,0,0,1,2.66.85,3.12,3.12,0,0,0,2,.64,3.11,3.11,0,0,0,2-.64,4.6,4.6,0,0,1,5.33,0,3.37,3.37,0,0,0,3.95,0,4.36,4.36,0,0,1,2.67-.85.65.65,0,0,1,0,1.29,3.12,3.12,0,0,0-2,.64A4.33,4.33,0,0,1,25.25,24.51Z" transform="translate(-1.4 -4.26)"/><path d="M25.25,27.74a4.36,4.36,0,0,1-2.67-.85,3.17,3.17,0,0,0-2-.64,3.12,3.12,0,0,0-2,.64,4.33,4.33,0,0,1-2.66.85,4.36,4.36,0,0,1-2.67-.85,3.17,3.17,0,0,0-2-.64,3.2,3.2,0,0,0-2,.64,4.3,4.3,0,0,1-2.66.85A4.36,4.36,0,0,1,4,26.89a3.17,3.17,0,0,0-2-.64.65.65,0,1,1,0-1.29,4.36,4.36,0,0,1,2.67.85,3.09,3.09,0,0,0,2,.64,3.11,3.11,0,0,0,2-.64A4.36,4.36,0,0,1,11.33,25a4.3,4.3,0,0,1,2.66.85,3.12,3.12,0,0,0,2,.64,3.11,3.11,0,0,0,2-.64,4.6,4.6,0,0,1,5.33,0,3.37,3.37,0,0,0,3.95,0A4.36,4.36,0,0,1,29.89,25a.65.65,0,0,1,0,1.29,3.18,3.18,0,0,0-2,.64A4.33,4.33,0,0,1,25.25,27.74Z" transform="translate(-1.4 -4.26)"/><path d="M11,15.13H7.67V9.25H5.87l3.45-5,3.44,5H11ZM9,13.84h.71V8h.64l-1-1.43L8.32,8H9Z" transform="translate(-1.4 -4.26)"/><path d="M17.61,15.13H14.32V9.25h-1.8l3.45-5,3.44,5h-1.8Zm-2-1.29h.71V8H17L16,6.53,15,8h.63Z" transform="translate(-1.4 -4.26)"/><path d="M24.26,15.13H21V9.25h-1.8l3.45-5,3.44,5h-1.8Zm-2-1.29H23V8h.64l-1-1.43L21.63,8h.63Z" transform="translate(-1.4 -4.26)"/></svg>