<svg id="icon" xmlns="http://www.w3.org/2000/svg" viewBox="0 0 32 32"><path d="M30.49,14.67H27.07A11,11,0,0,0,24.9,9.35l2.48-2.49a1.51,1.51,0,0,0-2.13-2.13l-2.5,2.5a10.9,10.9,0,0,0-5.24-2.12V1.51a1.51,1.51,0,0,0-3,0V5.16A10.88,10.88,0,0,0,9.42,7.35L6.86,4.8A1.51,1.51,0,1,0,4.73,6.94L7.31,9.52a11.08,11.08,0,0,0-2,5.15H1.51a1.51,1.51,0,0,0,0,3h3.8A11,11,0,0,0,7.38,22.6L4.8,25.17a1.51,1.51,0,0,0,0,2.14,1.52,1.52,0,0,0,2.14,0L9.5,24.74a10.8,10.8,0,0,0,5,2.13v3.62a1.51,1.51,0,0,0,3,0V26.92a10.87,10.87,0,0,0,5.15-2.05l2.51,2.51a1.51,1.51,0,0,0,2.14-2.13l-2.48-2.48A11.08,11.08,0,0,0,27,17.69h3.46a1.51,1.51,0,1,0,0-3ZM16.17,24a8,8,0,1,1,8-8A8,8,0,0,1,16.17,24Z"/></svg>